<svg id="Livello_1" data-name="Livello 1" xmlns="http://www.w3.org/2000/svg" viewBox="0 0 500 500"><defs><style>.cls-1{fill:#fff;}.cls-2{fill:none;stroke:#000;stroke-miterlimit:10;stroke-width:5px;}</style></defs><title>block_middle</title><rect class="cls-1" x="67.9" y="101.2" width="106.63" height="135.2"/><path d="M168.53,107.2V230.4H73.9V107.2h94.63m12-12H61.9V242.4H180.53V95.2Z"/><rect class="cls-1" x="196.19" y="101.2" width="106.63" height="135.2"/><path d="M296.81,107.2V230.4H202.19V107.2h94.62m12-12H190.19V242.4H308.81V95.2Z"/><rect class="cls-1" x="324.47" y="101.2" width="106.63" height="135.2"/><path d="M425.1,107.2V230.4H330.47V107.2H425.1m12-12H318.47V242.4H437.1V95.2Z"/><rect class="cls-1" x="132.44" y="259.6" width="106.63" height="135.2"/><path d="M233.07,265.6V388.8H138.44V265.6h94.63m12-12H126.44V400.8H245.07V253.6Z"/><rect class="cls-1" x="260.73" y="259.6" width="106.63" height="135.2"/><path d="M361.36,265.6V388.8H266.73V265.6h94.63m12-12H254.73V400.8H373.36V253.6Z"/><line class="cls-2" x1="124.84" y1="327.44" x2="64.66" y2="327.44"/><polyline class="cls-2" points="114.54 317.07 124.91 327.44 114.54 337.81"/><line class="cls-2" x1="435.24" y1="327.44" x2="375.06" y2="327.44"/><polyline class="cls-2" points="385.37 337.81 375 327.44 385.37 317.07"/></svg>