<svg id="Livello_1" data-name="Livello 1" xmlns="http://www.w3.org/2000/svg" viewBox="0 0 500 500"><defs><style>.cls-1{fill:#fff;}.cls-2{fill:none;stroke:#000;stroke-miterlimit:10;stroke-width:5px;}</style></defs><title>block_space-around</title><rect class="cls-1" x="67.98" y="101.2" width="106.63" height="135.2"/><path d="M168.61,107.2V230.4H74V107.2h94.63m12-12H62V242.4H180.61V95.2Z"/><rect class="cls-1" x="196.26" y="101.2" width="106.63" height="135.2"/><path d="M296.89,107.2V230.4H202.26V107.2h94.63m12-12H190.26V242.4H308.89V95.2Z"/><rect class="cls-1" x="324.55" y="101.2" width="106.63" height="135.2"/><path d="M425.18,107.2V230.4H330.55V107.2h94.63m12-12H318.55V242.4H437.18V95.2Z"/><rect class="cls-1" x="103.72" y="259.6" width="106.63" height="135.2"/><path d="M204.35,265.6V388.8H109.72V265.6h94.63m12-12H97.72V400.8H216.35V253.6Z"/><rect class="cls-1" x="291.2" y="259.6" width="106.63" height="135.2"/><path d="M391.83,265.6V388.8H297.2V265.6h94.63m12-12H285.2V400.8H403.83V253.6Z"/><line class="cls-2" x1="437.72" y1="327.44" x2="403.94" y2="327.44"/><polyline class="cls-2" points="414.24 337.81 403.87 327.44 414.24 317.07"/><polyline class="cls-2" points="427.42 317.07 437.79 327.44 427.42 337.81"/><line class="cls-2" x1="96.92" y1="327.44" x2="63.14" y2="327.44"/><polyline class="cls-2" points="73.44 337.81 63.07 327.44 73.44 317.07"/><polyline class="cls-2" points="86.62 317.07 96.99 327.44 86.62 337.81"/><line class="cls-2" x1="284.92" y1="327.44" x2="251.14" y2="327.44"/><polyline class="cls-2" points="261.44 337.81 251.07 327.44 261.44 317.07"/><polyline class="cls-2" points="274.62 317.07 284.99 327.44 274.62 337.81"/><line class="cls-2" x1="249.72" y1="327.44" x2="215.94" y2="327.44"/><polyline class="cls-2" points="226.24 337.81 215.87 327.44 226.24 317.07"/><polyline class="cls-2" points="239.42 317.07 249.79 327.44 239.42 337.81"/></svg>