<svg id="Livello_1" data-name="Livello 1" xmlns="http://www.w3.org/2000/svg" viewBox="0 0 500 500"><defs><style>.cls-1{fill:#fff;}.cls-2{fill:none;stroke:#000;stroke-miterlimit:10;stroke-width:5px;}</style></defs><title>block_right</title><rect class="cls-1" x="67.9" y="101.2" width="106.63" height="135.2"/><path d="M168.53,107.2V230.4H73.9V107.2h94.63m12-12H61.9V242.4H180.53V95.2Z"/><rect class="cls-1" x="196.19" y="101.2" width="106.63" height="135.2"/><path d="M296.81,107.2V230.4H202.19V107.2h94.62m12-12H190.19V242.4H308.81V95.2Z"/><rect class="cls-1" x="324.47" y="101.2" width="106.63" height="135.2"/><path d="M425.1,107.2V230.4H330.47V107.2H425.1m12-12H318.47V242.4H437.1V95.2Z"/><rect class="cls-1" x="324.47" y="259.6" width="106.63" height="135.2"/><path d="M425.1,265.6V388.8H330.47V265.6H425.1m12-12H318.47V400.8H437.1V253.6Z"/><rect class="cls-1" x="196.47" y="259.6" width="106.63" height="135.2"/><path d="M297.1,265.6V388.8H202.47V265.6H297.1m12-12H190.47V400.8H309.1V253.6Z"/><line class="cls-2" x1="425.64" y1="327.44" x2="365.46" y2="327.44"/><polyline class="cls-2" points="415.34 317.07 425.71 327.44 415.34 337.81"/><line class="cls-2" x1="299.24" y1="327.44" x2="239.06" y2="327.44"/><polyline class="cls-2" points="288.94 317.07 299.31 327.44 288.94 337.81"/></svg>