<svg id="Livello_1" data-name="Livello 1" xmlns="http://www.w3.org/2000/svg" viewBox="0 0 500 500"><defs><style>.cls-1{fill:#fff;}.cls-2{fill:none;stroke:#000;stroke-miterlimit:10;stroke-width:5px;}</style></defs><title>block_space-between</title><rect class="cls-1" x="67.93" y="101.2" width="106.63" height="135.2"/><path d="M168.56,107.2V230.4H73.93V107.2h94.63m12-12H61.93V242.4H180.56V95.2Z"/><rect class="cls-1" x="196.22" y="101.2" width="106.63" height="135.2"/><path d="M296.85,107.2V230.4H202.22V107.2h94.63m12-12H190.22V242.4H308.85V95.2Z"/><rect class="cls-1" x="324.5" y="101.2" width="106.63" height="135.2"/><path d="M425.13,107.2V230.4H330.5V107.2h94.63m12-12H318.5V242.4H437.13V95.2Z"/><rect class="cls-1" x="67.93" y="259.6" width="106.63" height="135.2"/><path d="M168.56,265.6V388.8H73.93V265.6h94.63m12-12H61.93V400.8H180.56V253.6Z"/><rect class="cls-1" x="324.76" y="259.6" width="106.63" height="135.2"/><path d="M425.39,265.6V388.8H330.76V265.6h94.63m12-12H318.76V400.8H437.39V253.6Z"/><line class="cls-2" x1="315.28" y1="327.44" x2="180.7" y2="327.44"/><polyline class="cls-2" points="191 337.81 183.03 327.44 191 317.07"/><polyline class="cls-2" points="307.37 317.07 317.75 327.44 307.37 337.81"/></svg>