<svg id="Livello_1" data-name="Livello 1" xmlns="http://www.w3.org/2000/svg" viewBox="0 0 500 500"><defs><style>.cls-1{fill:#fff;}.cls-2{fill:none;stroke:#000;stroke-miterlimit:10;stroke-width:5px;}</style></defs><title>flex_space-around</title><rect class="cls-1" x="68" y="108.16" width="363.2" height="77.76"/><path d="M425.2,114.16v65.76H74V114.16H425.2m12-12H62v89.76H437.2V102.16Z"/><rect class="cls-1" x="68.8" y="257.08" width="363.2" height="35.56"/><path d="M426,263.08v23.56H74.8V263.08H426m12-12H62.8v47.56H438V251.08Z"/><rect class="cls-1" x="68.8" y="365.4" width="185.6" height="35.56"/><path d="M248.4,371.4V395H74.8V371.4H248.4m12-12H62.8V407H260.4V359.4Z"/><line class="cls-2" x1="161.2" y1="72.31" x2="161.2" y2="100.49"/><polyline class="cls-2" points="171.57 90.19 161.2 100.56 150.83 90.19"/><polyline class="cls-2" points="150.83 82.61 161.2 72.24 171.57 82.61"/><line class="cls-2" x1="161.2" y1="192.31" x2="161.2" y2="220.49"/><polyline class="cls-2" points="171.57 210.19 161.2 220.56 150.83 210.19"/><polyline class="cls-2" points="150.83 202.62 161.2 192.24 171.57 202.62"/><line class="cls-2" x1="161.2" y1="221.11" x2="161.2" y2="249.29"/><polyline class="cls-2" points="171.57 238.99 161.2 249.36 150.83 238.99"/><polyline class="cls-2" points="150.83 231.41 161.2 221.04 171.57 231.41"/><line class="cls-2" x1="161.2" y1="300.31" x2="161.2" y2="328.49"/><polyline class="cls-2" points="171.57 318.19 161.2 328.56 150.83 318.19"/><polyline class="cls-2" points="150.83 310.62 161.2 300.24 171.57 310.62"/><line class="cls-2" x1="161.2" y1="329.11" x2="161.2" y2="357.29"/><polyline class="cls-2" points="171.57 346.99 161.2 357.36 150.83 346.99"/><polyline class="cls-2" points="150.83 339.42 161.2 329.04 171.57 339.42"/><line class="cls-2" x1="161.2" y1="409.11" x2="161.2" y2="437.29"/><polyline class="cls-2" points="171.57 426.99 161.2 437.36 150.83 426.99"/><polyline class="cls-2" points="150.83 419.42 161.2 409.04 171.57 419.42"/></svg>