<svg id="Livello_1" data-name="Livello 1" xmlns="http://www.w3.org/2000/svg" viewBox="0 0 500 500"><defs><style>.cls-1{fill:#fff;}.cls-2{fill:none;stroke:#000;stroke-miterlimit:10;stroke-width:5px;}</style></defs><title>flex_space-beteen</title><rect class="cls-1" x="68.9" y="72.1" width="363.2" height="85.76"/><path d="M426.1,78.1v73.76H74.9V78.1H426.1m12-12H62.9v97.76H438.1V66.1Z"/><rect class="cls-1" x="68.9" y="259.42" width="363.2" height="35.56"/><path d="M426.1,265.42V289H74.9V265.42H426.1m12-12H62.9V301H438.1V253.42Z"/><rect class="cls-1" x="68.9" y="393.34" width="185.6" height="35.56"/><path d="M248.5,399.34V422.9H74.9V399.34H248.5m12-12H62.9V434.9H260.5V387.34Z"/><line class="cls-2" x1="200.55" y1="166.65" x2="200.55" y2="253.23"/><polyline class="cls-2" points="210.93 242.93 200.55 253.3 190.18 242.93"/><polyline class="cls-2" points="190.18 176.95 200.55 166.58 210.93 176.95"/><line class="cls-2" x1="200.55" y1="302.65" x2="200.55" y2="385.23"/><polyline class="cls-2" points="210.93 374.93 200.55 385.3 190.18 374.93"/><polyline class="cls-2" points="190.18 312.95 200.55 302.58 210.93 312.95"/></svg>