<?xml version="1.0" encoding="UTF-8" standalone="no"?><!DOCTYPE svg PUBLIC "-//W3C//DTD SVG 1.1//EN" "http://www.w3.org/Graphics/SVG/1.1/DTD/svg11.dtd"><svg width="100%" height="100%" viewBox="0 0 368 104" version="1.1" xmlns="http://www.w3.org/2000/svg" xmlns:xlink="http://www.w3.org/1999/xlink" xml:space="preserve" xmlns:serif="http://www.serif.com/" style="fill-rule:evenodd;clip-rule:evenodd;stroke-linejoin:round;stroke-miterlimit:1.41421;"><g><path d="M94.791,71.268l7.329,0l0,-10.45l9.228,0l0,-6.529l-9.228,0l0,-4.485l9.271,0l0,-6.887l-16.6,0l0,28.351Z" style="fill:#09043f;fill-rule:nonzero;"/><path d="M137.191,55.371l-2.083,0l0,-5.926l2.083,0c2.193,0 3.343,0.92 3.343,3.003c0,1.962 -1.15,2.923 -3.343,2.923Zm10.42,-2.923c0,-6.368 -3.34,-9.531 -10.167,-9.531l-9.808,0l0,28.351l7.472,0l0,-9.811l1.187,0l5.749,9.811l7.761,0l0.251,-0.72l-6.612,-10.493c2.694,-1.4 4.167,-4.004 4.167,-7.607Z" style="fill:#09043f;fill-rule:nonzero;"/><path d="M177.117,64.421c-3.485,0 -6.218,-3.083 -6.218,-7.328c0,-4.366 2.697,-7.369 6.218,-7.369c3.52,0 6.215,3.003 6.215,7.369c0,4.245 -2.695,7.328 -6.215,7.328Zm0,-22.265c-8.013,0 -13.978,6.167 -13.978,14.937c0,8.529 5.965,14.937 13.978,14.937c8.012,0 14.012,-6.408 14.012,-14.937c0,-8.77 -5.964,-14.937 -14.012,-14.937Z" style="fill:#09043f;fill-rule:nonzero;"/><path d="M229.293,57.684l-0.072,0l-3.952,-14.727l-5.246,0l-3.951,14.727l-0.073,0l-3.27,-14.767l-8.121,0l7.619,28.471l6.862,0l3.521,-14.058l0.073,0l3.555,14.058l6.862,0l7.582,-28.471l-8.121,0l-3.268,14.767Z" style="fill:#09043f;fill-rule:nonzero;"/><path d="M263.398,60.858l1.079,-4.085c0.429,-1.602 0.933,-4.006 1.222,-6.528l0.176,0c0.289,2.522 0.828,4.926 1.223,6.528l1.113,4.085l-4.813,0Zm-1.869,-17.941l-9.519,28.351l8.656,0l1.148,-4.324l8.018,0l1.182,4.324l8.623,0l-9.34,-28.351l-8.768,0Z" style="fill:#09043f;fill-rule:nonzero;"/><path d="M303.934,55.371l-2.086,0l0,-5.926l2.086,0c2.191,0 3.341,0.92 3.341,3.003c0,1.962 -1.15,2.923 -3.341,2.923Zm10.416,-2.923c0,-6.368 -3.34,-9.531 -10.166,-9.531l-9.809,0l0,28.351l7.473,0l0,-9.811l1.185,0l5.748,9.811l7.764,0l0.25,-0.72l-6.609,-10.493c2.693,-1.4 4.164,-4.004 4.164,-7.607Z" style="fill:#09043f;fill-rule:nonzero;"/><path d="M348.42,49.804l0,-6.887l-16.996,0l0,28.351l16.996,0l0,-6.887l-9.668,0l0,-4.205l9.652,0l0,-6.526l-9.652,0l0,-3.846l9.668,0Z" style="fill:#09043f;fill-rule:nonzero;"/><path d="M61.739,19.94l-16.611,0c-4.589,0 -8.314,3.716 -8.314,8.308c0,1.962 0.72,3.745 1.863,5.166l-1.186,4.712l4.352,-2.255c1.009,0.433 2.114,0.678 3.285,0.678l16.611,0c4.581,0 8.303,-3.718 8.303,-8.301c0,-4.592 -3.722,-8.308 -8.303,-8.308Z" style="fill:url(#_Linear1);"/><path d="M48.982,53.278l-6.865,0c-0.005,0 -0.015,0.003 -0.024,0.003l-4.847,0l0,-3.353l0,-3.43l0,-3.432c0,-0.005 -0.001,-0.008 -0.001,-0.012l0,-4.864l-4.874,0l-6.865,0c-2.693,0 -4.876,2.183 -4.876,4.876l0,37.036c0,0.002 0.002,0.004 0.002,0.005l-0.002,0l0,4.87l11.741,0c2.69,0 4.875,-2.183 4.875,-4.875l0,-3.428l0,-3.435l0,-3.35l4.847,0c0.009,0 0.019,0.003 0.024,0.003l11.74,0l0,-4.87c0,-0.002 0,-0.004 0,-0.005l0,-6.863c0,-2.694 -2.184,-4.876 -4.875,-4.876Z" style="fill:url(#_Linear2);"/></g><defs><linearGradient id="_Linear1" x1="0" y1="0" x2="1" y2="0" gradientUnits="userSpaceOnUse" gradientTransform="matrix(11.7128,19.8093,-19.8093,11.7128,46.134,19.1397)"><stop offset="0" style="stop-color:#00df9a;stop-opacity:1"/><stop offset="1" style="stop-color:#1fcaff;stop-opacity:1"/></linearGradient><linearGradient id="_Linear2" x1="0" y1="0" x2="1" y2="0" gradientUnits="userSpaceOnUse" gradientTransform="matrix(21.0858,35.6615,-35.6615,21.0858,20.428,42.4587)"><stop offset="0" style="stop-color:#00df9a;stop-opacity:1"/><stop offset="1" style="stop-color:#1fcaff;stop-opacity:1"/></linearGradient></defs></svg>