<svg id="Livello_1" data-name="Livello 1" xmlns="http://www.w3.org/2000/svg" viewBox="0 0 500 500"><defs><style>.cls-1{fill:#fff;stroke:#000;stroke-linecap:round;stroke-linejoin:round;stroke-width:9px;}</style></defs><title>alpha</title><rect class="cls-1" x="43.5" y="40.5" width="414" height="414"/><path id="text2175" d="M211,273.64H150.19l-10.67,24.8c-2.62,6.11-3.94,10.66-3.94,13.68a7.93,7.93,0,0,0,3.42,6.31q3.42,2.73,14.78,3.54v4.29H104.29V322q9.85-1.74,12.75-4.52,5.91-5.56,13.1-22.6l55.28-129.34h4.06l54.7,130.73q6.62,15.78,12,20.47t15,5.27v4.29h-62V322q9.39-.47,12.69-3.13a8.09,8.09,0,0,0,3.31-6.49q0-5.1-4.64-16.11L211,273.64Zm-3.24-8.58-26.66-63.51-27.35,63.51Zm157.51-45H385l-11.93,53.66q-3.48,15.3-4.76,18.78,4.63,21.33,13.45,21.33,10.42,0,10.78-14.38h4.17q-.34,13.45-4.92,21.74c-3.06,5.52-7.05,8.28-12,8.28a10,10,0,0,1-9.14-5q-3-5-6.5-20.4-12,25.38-39.41,25.38-18.64,0-29.67-14.54t-11-41.67q0-26.66,12.05-41.49t29-14.84q12,0,19.59,8.46T358.23,253Zm-10.2,45.44q-5.46-18.67-12.17-29.15t-16.11-10.49q-21.21,0-21.21,49.6,0,47.06,20.28,47.06,17.63,0,26.08-41.5l3.13-15.52Z"/></svg>