<?xml version="1.0" encoding="utf-8"?>
<!-- Generator: Adobe Illustrator 22.1.0, SVG Export Plug-In . SVG Version: 6.00 Build 0)  -->
<svg version="1.1" id="Livello_1" xmlns="http://www.w3.org/2000/svg" xmlns:xlink="http://www.w3.org/1999/xlink" x="0px" y="0px"
     viewBox="0 0 200 200" style="enable-background:new 0 0 200 200;" xml:space="preserve">
<style type="text/css">
	.st0{fill:#FFFFFF;}
</style>
<path class="st0" d="M76.9,94.4L76.9,94.4L76.9,94.4L76.9,94.4z M51,137.5c-8.1-8.6-10.6-19.4-11.5-26.4l-39,0
	C3.1,135,14.2,157.1,32,173.5C50.5,190.6,74.6,200,99.8,200c35.9,0,68.7-19,86.6-49.9h-103C69.7,150.1,58.8,145.8,51,137.5z
	 M97.7,73.6c0-11.5-9.3-20.8-20.8-20.8c-11.5,0-20.8,9.3-20.8,20.8L56,94.4l20.9,0C88.4,94.4,97.7,85.1,97.7,73.6z M170.6,29.3
	C151.7,10.4,126.6,0,99.8,0C73.7,0,48.9,10,30.2,28.3C12,45.9,1.4,69.3,0,94.4l39.2,0l0.1-20.8C39.3,52.9,56.2,36,76.9,36
	c20.7,0,37.6,16.9,37.6,37.6s-16.9,37.6-37.6,37.6l-20.5,0c0.7,4.4,2.5,10.4,6.8,14.9c4.5,4.8,11.3,7.2,20.2,7.2h110.7
	c3.8-10.7,5.7-21.9,5.7-33.3C199.8,73.3,189.4,48.2,170.6,29.3z"/>
</svg>
