<svg id="Livello_1" data-name="Livello 1" xmlns="http://www.w3.org/2000/svg" viewBox="0 0 500 500"><defs><style>.cls-1{opacity:0.4;}</style></defs><title>close</title><g class="cls-1"><polygon points="341.62 91.5 250 183.12 158.38 91.5 91.5 158.38 183.12 250 91.5 341.62 158.38 408.5 250 316.88 341.62 408.5 408.5 341.62 316.88 250 408.5 158.38 341.62 91.5"/></g><circle cx="159" cy="92" r="12.1"/><circle cx="341" cy="92" r="12.1"/><circle cx="409" cy="158" r="12.1"/><circle cx="91.5" cy="341.5" r="12.1"/><circle cx="159.5" cy="407.5" r="12.1"/><circle cx="317" cy="250" r="12.1"/><circle cx="408" cy="342" r="12.1"/><circle cx="341" cy="409" r="12.1"/><circle cx="92" cy="158" r="12.1"/><circle cx="250" cy="184" r="12.1"/><circle cx="183" cy="250" r="12.1"/><circle cx="250" cy="318" r="12.1"/></svg>