<svg id="Livello_1" data-name="Livello 1" xmlns="http://www.w3.org/2000/svg" viewBox="0 0 500 500"><defs><style>.cls-1{opacity:0.4;}</style></defs><title>cross</title><g class="cls-1"><polygon points="379.19 174.47 295.71 174.47 295.71 91 204.29 91 204.29 174.47 120.81 174.47 120.81 259.27 204.29 259.27 204.29 409 295.71 409 295.71 259.27 379.19 259.27 379.19 174.47"/></g><circle cx="121" cy="175" r="12.1"/><circle cx="204" cy="175" r="12.1"/><circle cx="204" cy="91" r="12.1"/><circle cx="121" cy="259" r="12.1"/><circle cx="204" cy="259" r="12.1"/><circle cx="296" cy="175" r="12.1"/><circle cx="296" cy="91" r="12.1"/><circle cx="379" cy="175" r="12.1"/><circle cx="296" cy="259" r="12.1"/><circle cx="204" cy="409" r="12.1"/><circle cx="296" cy="409" r="12.1"/><circle cx="379" cy="259" r="12.1"/></svg>