<svg id="Livello_1" data-name="Livello 1" xmlns="http://www.w3.org/2000/svg" viewBox="0 0 500 500"><defs><style>.cls-1{opacity:0.4;}</style></defs><title>rabbet</title><g class="cls-1"><polygon points="337.5 147.5 337.5 97 162.5 97 162.5 147.5 97 147.5 97 352.5 162.5 352.5 162.5 403 337.5 403 337.5 352.5 403 352.5 403 147.5 337.5 147.5"/></g><circle cx="163" cy="148" r="12.1"/><circle cx="97" cy="148" r="12.1"/><circle cx="163" cy="97" r="12.1"/><circle cx="338" cy="148" r="12.1"/><circle cx="404" cy="148" r="12.1"/><circle cx="338" cy="97" r="12.1"/><circle cx="163" cy="353" r="12.1"/><circle cx="97" cy="353" r="12.1"/><circle cx="163" cy="404" r="12.1"/><circle cx="338" cy="353" r="12.1"/><circle cx="404" cy="353" r="12.1"/><circle cx="338" cy="404" r="12.1"/></svg>