<?xml version="1.0" encoding="UTF-8" standalone="no"?><!DOCTYPE svg PUBLIC "-//W3C//DTD SVG 1.1//EN" "http://www.w3.org/Graphics/SVG/1.1/DTD/svg11.dtd"><svg width="100%" height="100%" viewBox="0 0 331 210" version="1.1" xmlns="http://www.w3.org/2000/svg" xmlns:xlink="http://www.w3.org/1999/xlink" xml:space="preserve" xmlns:serif="http://www.serif.com/" style="fill-rule:evenodd;clip-rule:evenodd;stroke-linejoin:round;stroke-miterlimit:1.41421;"><g id="typography"><path d="M38.634,158.557l7.329,0l0,-10.45l9.228,0l0,-6.529l-9.228,0l0,-4.485l9.271,0l0,-6.887l-16.6,0l0,28.351Z" style="fill:#09043f;fill-rule:nonzero;"/><path d="M81.035,142.659l-2.083,0l0,-5.926l2.083,0c2.192,0 3.343,0.92 3.343,3.003c0,1.962 -1.151,2.923 -3.343,2.923m10.42,-2.923c0,-6.368 -3.341,-9.53 -10.167,-9.53l-9.809,0l0,28.35l7.473,0l0,-9.811l1.187,0l5.749,9.811l7.76,0l0.251,-0.719l-6.611,-10.493c2.693,-1.401 4.167,-4.004 4.167,-7.608" style="fill:#09043f;fill-rule:nonzero;"/><path d="M120.96,151.71c-3.485,0 -6.218,-3.083 -6.218,-7.328c0,-4.366 2.697,-7.369 6.218,-7.369c3.52,0 6.215,3.003 6.215,7.369c0,4.245 -2.695,7.328 -6.215,7.328m0,-22.266c-8.013,0 -13.979,6.167 -13.979,14.938c0,8.528 5.966,14.936 13.979,14.936c8.012,0 14.012,-6.408 14.012,-14.936c0,-8.771 -5.964,-14.938 -14.012,-14.938" style="fill:#09043f;fill-rule:nonzero;"/><path d="M173.137,144.973l-0.072,0l-3.953,-14.728l-5.245,0l-3.951,14.728l-0.073,0l-3.27,-14.767l-8.121,0l7.618,28.471l6.862,0l3.522,-14.058l0.072,0l3.556,14.058l6.862,0l7.582,-28.471l-8.121,0l-3.268,14.767Z" style="fill:#09043f;fill-rule:nonzero;"/><path d="M207.242,148.146l1.078,-4.085c0.43,-1.602 0.934,-4.006 1.223,-6.528l0.176,0c0.289,2.522 0.828,4.926 1.222,6.528l1.114,4.085l-4.813,0Zm-1.869,-17.94l-9.52,28.35l8.657,0l1.148,-4.324l8.018,0l1.181,4.324l8.623,0l-9.34,-28.35l-8.767,0Z" style="fill:#09043f;fill-rule:nonzero;"/><path d="M247.777,142.659l-2.086,0l0,-5.926l2.086,0c2.191,0 3.342,0.92 3.342,3.003c0,1.962 -1.151,2.923 -3.342,2.923m10.416,-2.923c0,-6.368 -3.34,-9.53 -10.166,-9.53l-9.809,0l0,28.35l7.473,0l0,-9.811l1.186,0l5.748,9.811l7.763,0l0.25,-0.719l-6.609,-10.493c2.693,-1.401 4.164,-4.004 4.164,-7.608" style="fill:#09043f;fill-rule:nonzero;"/><path d="M292.264,137.093l0,-6.887l-16.996,0l0,28.351l16.996,0l0,-6.887l-9.668,0l0,-4.205l9.652,0l0,-6.526l-9.652,0l0,-3.846l9.668,0Z" style="fill:#09043f;fill-rule:nonzero;"/></g><g id="sign"><path d="M169.285,50.945c-3.603,0 -6.527,2.918 -6.527,6.524c0,1.539 0.564,2.939 1.461,4.055l-0.93,3.701l3.417,-1.772c0.792,0.341 1.659,0.532 2.579,0.532l13.042,0c3.597,0 6.52,-2.918 6.52,-6.516c0,-3.606 -2.923,-6.524 -6.52,-6.524l-13.042,0Z" style="fill:url(#_Linear1);fill-rule:nonzero;"/><path d="M159.269,65.274l-5.39,0c-2.115,0 -3.828,1.714 -3.828,3.829l0,2.694l0,2.693l0,18.303l0,2.697l0,2.692c0,0.001 0.001,0.003 0.001,0.003l-0.001,0l0,3.824l9.218,0c2.112,0 3.827,-1.714 3.827,-3.827l0,-2.692l0,-2.697l0,-2.63l3.806,0c0.008,0 0.015,0.002 0.019,0.002l9.218,0l0,-3.824l0,-0.004l0,-5.388c0,-2.114 -1.715,-3.828 -3.828,-3.828l-5.39,0c-0.004,0 -0.011,0.002 -0.019,0.002l-3.806,0l0,-2.633l0,-2.693l0,-2.694c0,-0.004 -0.001,-0.006 -0.001,-0.01l0,-3.819l-3.826,0Z" style="fill:url(#_Linear2);fill-rule:nonzero;"/></g><defs><linearGradient id="_Linear1" x1="0" y1="0" x2="1" y2="0" gradientUnits="userSpaceOnUse" gradientTransform="matrix(9.19661,15.5538,-15.5538,9.19661,170.075,50.3168)"><stop offset="0" style="stop-color:#00df9a;stop-opacity:1"/><stop offset="1" style="stop-color:#1fcaff;stop-opacity:1"/></linearGradient><linearGradient id="_Linear2" x1="0" y1="0" x2="1" y2="0" gradientUnits="userSpaceOnUse" gradientTransform="matrix(16.5556,27.9997,-27.9997,16.5556,149.893,68.6264)"><stop offset="0" style="stop-color:#00df9a;stop-opacity:1"/><stop offset="1" style="stop-color:#1fcaff;stop-opacity:1"/></linearGradient></defs></svg>