<?xml version="1.0" encoding="UTF-8" standalone="no"?><!DOCTYPE svg PUBLIC "-//W3C//DTD SVG 1.1//EN" "http://www.w3.org/Graphics/SVG/1.1/DTD/svg11.dtd"><svg width="100%" height="100%" viewBox="0 0 51 51" version="1.1" xmlns="http://www.w3.org/2000/svg" xmlns:xlink="http://www.w3.org/1999/xlink" xml:space="preserve" xmlns:serif="http://www.serif.com/" style="fill-rule:evenodd;clip-rule:evenodd;stroke-linejoin:round;stroke-miterlimit:1.41421;"><g id="sign"><path d="M25.285,-0.055c-3.603,0 -6.527,2.918 -6.527,6.524c0,1.539 0.564,2.939 1.461,4.055l-0.93,3.701l3.417,-1.772c0.792,0.341 1.659,0.532 2.579,0.532l13.042,0c3.597,0 6.52,-2.918 6.52,-6.516c0,-3.606 -2.923,-6.524 -6.52,-6.524l-13.042,0Z" style="fill:url(#_Linear1);fill-rule:nonzero;"/><path d="M15.269,14.274l-5.39,0c-2.115,0 -3.828,1.714 -3.828,3.829l0,2.694l0,2.693l0,18.303l0,2.697l0,2.692c0,0.001 0.001,0.003 0.001,0.003l-0.001,0l0,3.824l9.218,0c2.112,0 3.827,-1.714 3.827,-3.827l0,-2.692l0,-2.697l0,-2.63l3.806,0c0.008,0 0.015,0.002 0.019,0.002l9.218,0l0,-3.824l0,-0.004l0,-5.388c0,-2.114 -1.715,-3.828 -3.828,-3.828l-5.39,0c-0.004,0 -0.011,0.002 -0.019,0.002l-3.806,0l0,-2.633l0,-2.693l0,-2.694c0,-0.004 -0.001,-0.006 -0.001,-0.01l0,-3.819l-3.826,0Z" style="fill:url(#_Linear2);fill-rule:nonzero;"/></g><defs><linearGradient id="_Linear1" x1="0" y1="0" x2="1" y2="0" gradientUnits="userSpaceOnUse" gradientTransform="matrix(9.19661,15.5538,-15.5538,9.19661,26.0747,-0.683191)"><stop offset="0" style="stop-color:#00df9a;stop-opacity:1"/><stop offset="1" style="stop-color:#1fcaff;stop-opacity:1"/></linearGradient><linearGradient id="_Linear2" x1="0" y1="0" x2="1" y2="0" gradientUnits="userSpaceOnUse" gradientTransform="matrix(16.5556,27.9997,-27.9997,16.5556,5.89258,17.6264)"><stop offset="0" style="stop-color:#00df9a;stop-opacity:1"/><stop offset="1" style="stop-color:#1fcaff;stop-opacity:1"/></linearGradient></defs></svg>