<?xml version="1.0" encoding="UTF-8" standalone="no"?><!DOCTYPE svg PUBLIC "-//W3C//DTD SVG 1.1//EN" "http://www.w3.org/Graphics/SVG/1.1/DTD/svg11.dtd"><svg width="100%" height="100%" viewBox="0 0 48 15" version="1.1" xmlns="http://www.w3.org/2000/svg" xmlns:xlink="http://www.w3.org/1999/xlink" xml:space="preserve" xmlns:serif="http://www.serif.com/" style="fill-rule:evenodd;clip-rule:evenodd;stroke-linejoin:round;stroke-miterlimit:1.41421;"><g id="sign"><path d="M8.55,12.987l0,-0.002l-8.265,0c-0.92,0 -1.787,-0.191 -2.579,-0.532l-3.417,1.772l0.93,-3.701c-0.897,-1.116 -1.461,-2.516 -1.461,-4.055c0,-3.606 2.924,-6.524 6.527,-6.524l13.042,0l0.453,0.023l0.455,-0.023l13.042,0l0.154,0.008l0.155,-0.008l13.042,0c3.597,0 6.52,2.918 6.52,6.524c0,3.598 -2.923,6.516 -6.52,6.516l-13.042,0l-0.153,-0.008l-0.156,0.008l-3.295,0l-0.004,0.002l-2.077,0l0.001,-0.002l-7.667,0l-0.449,-0.023l-0.459,0.023l-2.697,0l-0.004,0.002l-2.076,0Z" style="fill:#f57c0f;"/></g></svg>