<svg id="Livello_1" data-name="Livello 1" xmlns="http://www.w3.org/2000/svg" viewBox="0 0 500 500"><defs><style>.cls-1{fill:#dbdbdb;}.cls-1,.cls-3,.cls-4,.cls-5,.cls-6,.cls-7{stroke:#000;stroke-miterlimit:10;}.cls-1,.cls-6{stroke-width:10px;}.cls-2{fill:#fff;}.cls-3,.cls-4,.cls-5,.cls-6{fill:none;}.cls-3,.cls-4,.cls-5{stroke-width:6px;}.cls-4{stroke-dasharray:23.88 14.33;}.cls-5{stroke-dasharray:25.26 15.16;}.cls-7{fill:red;stroke-width:9px;}</style></defs><title>position_center-bottom</title><rect class="cls-1" x="85" y="79.5" width="345" height="279" transform="translate(515 438) rotate(180)"/><rect class="cls-2" x="90" y="302" width="336" height="118" transform="translate(516 722) rotate(180)"/><polyline class="cls-3" points="85 311 85 298.5 97.5 298.5"/><line class="cls-4" x1="111.83" y1="298.5" x2="410.34" y2="298.5"/><polyline class="cls-3" points="417.5 298.5 430 298.5 430 311"/><line class="cls-5" x1="430" y1="326.16" x2="430" y2="399.42"/><polyline class="cls-3" points="430 407 430 419.5 417.5 419.5"/><line class="cls-4" x1="403.17" y1="419.5" x2="104.66" y2="419.5"/><polyline class="cls-3" points="97.5 419.5 85 419.5 85 407"/><line class="cls-5" x1="85" y1="391.84" x2="85" y2="318.58"/><rect class="cls-6" x="85" y="79.5" width="345" height="279" transform="translate(515 438) rotate(180)"/><circle class="cls-7" cx="257" cy="360.5" r="35"/></svg>