<svg fill="none" viewBox="0 0 54 54" xmlns="http://www.w3.org/2000/svg" xmlns:xlink="http://www.w3.org/1999/xlink"><clipPath id="a"><path d="m0 0h54v54h-54z"/></clipPath><g clip-path="url(#a)"><path d="m35.6402 52.74c-12.78 4.14-26.82003-1.62-32.76003-13.68-.54-1.08-1.08-2.34-1.44-3.42-4.32-12.78 1.44-26.82001 13.50003-32.76001 1.08-.72 2.34-1.08 3.6-1.44 12.78-4.14 26.82 1.62 32.76 13.68001.54 1.08 1.08 2.34 1.44 3.42 4.14 12.78-1.62 26.82-13.68 32.76-1.08.54-2.16 1.08-3.42 1.44zm-5.58-48.24001c-12.6-1.62-23.94003 7.02001-25.56003 19.62001s7.20003 23.94 19.62003 25.56 23.94-7.2 25.56-19.62c.18-1.98.18-3.96 0-5.94-1.44-10.26-9.36-18.36001-19.62-19.62001zm1.98 32.58001-10.08-10.08 10.08-10.08c.9-.9.9-2.16 0-2.88-.9-.9-2.16-.9-3.06 0l-12.96 12.96 13.14 13.14c.9.9 2.16.9 3.06 0 .72-.9.72-2.16-.18-3.06z" fill="#fff"/></g></svg>