<svg width="60" height="60" viewBox="0 0 45 45" fill="none" xmlns="http://www.w3.org/2000/svg">
<g clip-path="url(#clip0)">
<path d="M8.83982 0.607216C14.9932 -1.38612 21.7532 1.38722 24.6132 7.19388C24.8732 7.71388 25.1332 8.32055 25.3065 8.84055C27.3865 14.9939 24.6132 21.7539 18.8065 24.6139C18.2865 24.9605 17.6798 25.1339 17.0732 25.3072C10.9198 27.3005 4.15982 24.5272 1.29982 18.7205C1.03982 18.2005 0.779816 17.5939 0.606483 17.0739C-1.38685 10.9205 1.38648 4.16055 7.19315 1.30055C7.71315 1.04055 8.23315 0.780549 8.83982 0.607216ZM11.5265 23.8339C17.5932 24.6139 23.0532 20.4539 23.8332 14.3872C24.6132 8.32055 20.3665 2.86055 14.3865 2.08055C8.40649 1.30055 2.85982 5.54721 2.07982 11.5272C1.99315 12.4805 1.99315 13.4339 2.07982 14.3872C2.77315 19.3272 6.58648 23.2272 11.5265 23.8339ZM10.5732 8.14721L15.4265 13.0005L10.5732 17.8539C10.1398 18.2872 10.1398 18.8939 10.5732 19.2405C11.0065 19.6739 11.6132 19.6739 12.0465 19.2405L18.2865 13.0005L11.9598 6.67388C11.5265 6.24055 10.9198 6.24055 10.4865 6.67388C10.1398 7.10722 10.1398 7.71388 10.5732 8.14721Z" fill="black"/>
</g>
<defs>
<clipPath id="clip0">
<rect width="26" height="26" fill="white" transform="translate(26 26) rotate(-180)"/>
</clipPath>
</defs>
</svg>
