<svg clip-rule="evenodd" fill-rule="evenodd" stroke-linejoin="round" stroke-miterlimit="2" viewBox="0 0 54 54" xmlns="http://www.w3.org/2000/svg"><g fill-rule="nonzero" transform="matrix(-1 0 0 1 54 0)"><path d="m35.64 52.74c-12.78 4.14-26.82-1.62-32.76-13.68-.54-1.08-1.08-2.34-1.44-3.42-4.32-12.78 1.44-26.82 13.5-32.76 1.08-.72 2.34-1.08 3.6-1.44 12.78-4.14 26.82 1.62 32.76 13.68.54 1.08 1.08 2.34 1.44 3.42 4.14 12.78-1.62 26.82-13.68 32.76-1.08.54-2.16 1.08-3.42 1.44z"/><path d="m32.04 37.08-10.08-10.08 10.08-10.08c.9-.9.9-2.16 0-2.88-.9-.9-2.16-.9-3.06 0l-12.96 12.96 13.14 13.14c.9.9 2.16.9 3.06 0 .72-.9.72-2.16-.18-3.06z" fill="#fff"/></g></svg>